<svg id="Layer_1" data-name="Layer 1" xmlns="http://www.w3.org/2000/svg" width="5.568in" height="0.724in" viewBox="0 0 400.931 52.16"><defs><style>.cls-1{fill:#fff;}</style></defs><title>AAWC-Logo-Tag-Left</title><path class="cls-1" d="M559.131,263.436a21.883,21.883,0,0,0-1.62,8.966,17.825,17.825,0,0,0,1.529,7.669,10.893,10.893,0,0,0,4.6,4.976,14.028,14.028,0,0,0,7.011,1.731,12.921,12.921,0,0,0,6.039-1.358,19.251,19.251,0,0,0,5.754-5.4l.8.481a17.655,17.655,0,0,1-6.169,6.37,16.557,16.557,0,0,1-8.372,2.02q-8.734,0-13.53-6.01a16.348,16.348,0,0,1-3.577-10.53,17.612,17.612,0,0,1,2.359-8.966,16.411,16.411,0,0,1,6.492-6.335,18.614,18.614,0,0,1,9.033-2.248A17.61,17.61,0,0,1,577,256.536a4.275,4.275,0,0,0,1.555.529,1.779,1.779,0,0,0,1.217-.457,3.639,3.639,0,0,0,.959-1.8h.908l.8,11.083h-.8q-1.608-4.977-4.588-7.164a11.761,11.761,0,0,0-7.154-2.188,12.331,12.331,0,0,0-6.324,1.647A11.076,11.076,0,0,0,559.131,263.436Zm-45.677-6.419a3.305,3.305,0,0,1,2.1-.577h.622v-.889H503.164v.889a5.493,5.493,0,0,1,2.423.445A3.284,3.284,0,0,1,507,258.243q.31.554,1.477,3.582l10.446,27.069h.933l7.957-20.843,8.009,20.843h1.037l9.8-26.276a26.494,26.494,0,0,1,1.633-4.014,4.635,4.635,0,0,1,1.633-1.707,4.717,4.717,0,0,1,2.229-.457v-.889h-10.5v.889a8.1,8.1,0,0,1,2.567.337,1.977,1.977,0,0,1,.945.673,1.645,1.645,0,0,1,.376,1.033,14.206,14.206,0,0,1-1.14,4.135l-6.688,17.958-6.738-17.717a14.505,14.505,0,0,1-1.167-4.279,1.953,1.953,0,0,1,.674-1.563,3.224,3.224,0,0,1,2.125-.577h.933v-.889H519.856v.889a6.058,6.058,0,0,1,1.555.144,4.839,4.839,0,0,1,1.3.625,3.069,3.069,0,0,1,.83.77,11.672,11.672,0,0,1,1.218,2.115l.829,2.188,1.037,2.74-5.832,15.554-6.92-18.294a15.621,15.621,0,0,1-1.141-3.871A1.73,1.73,0,0,1,513.454,257.017Zm-20.233-2.212,12.234,27.117a12.233,12.233,0,0,0,2.683,4.243,5.738,5.738,0,0,0,3.356,1.094v.889H497.628v-.889a5.508,5.508,0,0,0,2.838-.649,1.637,1.637,0,0,0,.739-1.346,9.424,9.424,0,0,0-1.037-3.342l-2.126-4.688H484.435l-2.385,5.145a7.682,7.682,0,0,0-.881,2.837,1.616,1.616,0,0,0,.764,1.31,7.086,7.086,0,0,0,3.305.733v.889H463.3v-.889a5.508,5.508,0,0,0,2.838-.649,1.637,1.637,0,0,0,.739-1.346,9.424,9.424,0,0,0-1.037-3.342l-2.125-4.688H450.1l-2.385,5.145a7.682,7.682,0,0,0-.881,2.837,1.619,1.619,0,0,0,.764,1.31,7.089,7.089,0,0,0,3.305.733v.889H439.839v-.889a6.26,6.26,0,0,0,2.852-.937,14.558,14.558,0,0,0,2.928-4.688l12.364-26.829h.907l12.235,27.117a12.22,12.22,0,0,0,2.682,4.243,4.655,4.655,0,0,0,1.687.821,3.867,3.867,0,0,0,1.527-.664,14.539,14.539,0,0,0,2.929-4.688l12.364-26.829Zm-30.235,20.65-5.962-13.173-6.117,13.173Zm34.33,0-5.961-13.173-6.117,13.173Zm90.991,17.726H435.921a.8.8,0,0,0-.8.8v1.794a.8.8,0,0,0,.8.8H588.307a.8.8,0,0,0,.8-.8v-1.794A.8.8,0,0,0,588.307,293.181Zm0-45.779H435.921a.8.8,0,0,0-.8.8v1.794a.8.8,0,0,0,.8.8H588.307a.8.8,0,0,0,.8-.8V248.2A.8.8,0,0,0,588.307,247.4ZM428.99,271.589a13.235,13.235,0,0,1,5.437,10.717,16.071,16.071,0,0,1-27.815,10.672l-.042.04-.024-.022a16.3,16.3,0,0,1-11.928,5.084c-8.751,0-15.871-6.679-15.871-14.888A14.485,14.485,0,0,1,384.17,272a14.482,14.482,0,0,1-5.423-11.192c0-8.209,7.12-14.888,15.871-14.888a16.291,16.291,0,0,1,11.97,5.129,16.287,16.287,0,0,1,11.969-5.129c9.048,0,15.87,6.02,15.87,14A15.8,15.8,0,0,1,428.99,271.589Zm-24.814-10.781a12.676,12.676,0,0,0,2.412,7.417,12.614,12.614,0,0,0,0-14.834A12.681,12.681,0,0,0,404.176,260.808Zm6.312,0a14.184,14.184,0,0,1-2.937,8.612,14.062,14.062,0,0,0,1.79,1.664,16.49,16.49,0,0,1,9.216-2.779,18.59,18.59,0,0,1,6.145,1.014l-15.145-13.531A14,14,0,0,1,410.488,260.808Zm0,22.384a14,14,0,0,1-.823,4.724l13.166-12.858a14.876,14.876,0,0,1-4.274.638,16.5,16.5,0,0,1-9.216-2.779,14.062,14.062,0,0,0-1.79,1.664A14.183,14.183,0,0,1,410.488,283.192Zm-7.8,0a14.183,14.183,0,0,1,2.937-8.611,14.13,14.13,0,0,0-1.79-1.664,16.49,16.49,0,0,1-9.216,2.779,16.738,16.738,0,0,1-5.315-.862l14.318,13.389A14.016,14.016,0,0,1,402.687,283.192Zm0-22.384a13.989,13.989,0,0,1,.879-4.877l-14.1,13.183a16.736,16.736,0,0,1,5.151-.809,16.49,16.49,0,0,1,9.216,2.779,14.062,14.062,0,0,0,1.79-1.664A14.184,14.184,0,0,1,402.687,260.808ZM386.725,272a15.218,15.218,0,0,0,15.786,0,15.223,15.223,0,0,0-15.786,0Zm19.862,1.433A15.645,15.645,0,0,1,408.109,272a15.4,15.4,0,0,1-1.521-1.433A15.524,15.524,0,0,1,405.066,272,15.52,15.52,0,0,1,406.587,273.433Zm19.3-1.356.431-.421a16.369,16.369,0,0,0-7.758-1.862A15.062,15.062,0,0,0,410.664,272a15.054,15.054,0,0,0,7.893,2.207A13.971,13.971,0,0,0,425.884,272.077Zm-40.6-1.089,20.228-18.913a14.806,14.806,0,0,0-10.893-4.666c-7.93,0-14.382,6.011-14.382,13.4A13.016,13.016,0,0,0,385.283,270.988ZM405.46,291.98l-20.235-18.921a13.01,13.01,0,0,0-4.989,10.133c0,7.389,6.452,13.4,14.382,13.4A14.811,14.811,0,0,0,405.46,291.98ZM409,283.192a12.675,12.675,0,0,0-2.412-7.416,12.612,12.612,0,0,0,0,14.833A12.676,12.676,0,0,0,409,283.192Zm18.791-10.628q-.452.333-.924.635l-19.19,18.739a14.584,14.584,0,0,0,25.262-9.632A11.8,11.8,0,0,0,427.79,272.564Zm5.148-12.642c0-7.133-6.182-12.513-14.381-12.513a14.8,14.8,0,0,0-10.905,4.68l20.477,18.3A14.292,14.292,0,0,0,432.938,259.922Zm-230.053,7.732c6.553,0,10.681-3.312,10.681-8.928s-4.128-8.929-10.681-8.929-10.68,3.312-10.68,8.929S196.333,267.654,202.885,267.654Zm0-3.312c-4.176,0-6.768-2.016-6.768-5.616s2.616-5.617,6.768-5.617,6.769,2.016,6.769,5.617S207.038,264.342,202.885,264.342Zm33.361-10.7v-3.312H219.252v16.8h3.841v-6.288h11.089v-3.312H223.093v-3.889Zm22.1,0v-3.312H241.356v16.8H245.2v-6.288h11.089v-3.312H245.2v-3.889Zm8.95,13.489v-16.8h-3.84v16.8Zm16.2-2.784c-3.984,0-6.624-1.92-6.624-5.616s2.64-5.617,6.624-5.617a6.014,6.014,0,0,1,5.521,2.712l3.528-1.752a10.668,10.668,0,0,0-9-4.272c-6.481,0-10.585,3.336-10.585,8.929s4.1,8.928,10.416,8.928c4.393,0,7.633-1.92,9.217-4.3l-3.5-1.752A6.1,6.1,0,0,1,283.5,264.342Zm18.048,2.784v-16.8h-3.84v16.8Zm22.393,0h4.152l-8.905-16.8h-4.2l-8.9,16.8h4.1l1.8-3.552h10.153Zm-10.369-6.672,3.48-6.841,3.48,6.841Zm22.872,3.36V250.325H332.6v16.8h15.721v-3.312Zm-145.559,24.56-2.713,2.28c1.465,1.872,3.673,3,6.985,3,5.664,0,8.353-3.312,8.353-7.752v-9.577h-3.841v9.289c0,2.9-1.272,4.68-4.512,4.68A4.784,4.784,0,0,1,190.885,288.374Zm28.656,5.28c6.553,0,10.681-3.312,10.681-8.928s-4.128-8.929-10.681-8.929-10.681,3.312-10.681,8.929S212.989,293.654,219.541,293.654Zm0-3.312c-4.176,0-6.769-2.016-6.769-5.616s2.617-5.617,6.769-5.617,6.769,2.016,6.769,5.617S223.693,290.342,219.541,290.342Zm31.1-14.017v8.593c0,3.36-1.968,5.376-5.593,5.376s-5.592-2.016-5.592-5.376v-8.593h-3.84v8.881c0,5.04,3.336,8.448,9.432,8.448s9.433-3.408,9.433-8.448v-8.881Zm29.568,16.8-5.184-5.976c2.784-.648,4.68-2.424,4.68-5.28,0-3.649-3.1-5.545-7.2-5.545H260.917v16.8h3.816v-5.712h6.072l4.824,5.712Zm-15.506-8.88v-4.7h7.585c2.017,0,3.5.479,3.5,2.352s-1.488,2.352-3.5,2.352Zm36.217-7.921v11.521L289.6,276.325h-4.08v16.8h3.72V280.981l12.049,12.145h3.361v-16.8Zm26.112,16.8h4.152l-8.9-16.8h-4.2l-8.905,16.8h4.105l1.8-3.552h10.153Zm-10.369-6.672,3.48-6.841,3.48,6.841Zm22.872,3.36V276.325H335.7v16.8h15.721v-3.312Z" transform="translate(-188.172 -245.92)"/></svg>