<svg id="Layer_1" data-name="Layer 1" xmlns="http://www.w3.org/2000/svg" width="313.938" height="43.396" viewBox="0 0 313.938 43.396"><defs><style>.cls-1{fill:#fff;}</style></defs><title>Consultant360-Logo_1C-W</title><path class="cls-1" d="M8.939,18.823c0,5.813.441,9.326,1.475,11.747,1.2,2.818,3.264,4.13,6.484,4.13,2.781,0,4.68-1.244,9.763-5.525l.058-.048.44.177-1.023,5.173-.065.025a27.841,27.841,0,0,1-9.228,1.548C6.454,36.05,0,29.533,0,19.043,0,8.348,6.833,1.705,17.833,1.705a74.578,74.578,0,0,1,9.036.716l.1.014.006.1L27.2,7.205l-.367.093-.042-.024c-6.334-3.471-8.169-4.22-10.334-4.22C10.1,3.054,8.939,8.365,8.939,18.823ZM54.2,23C54.2,30.74,49,35.94,41.263,35.94c-7.673,0-12.828-5.133-12.828-12.774,0-7.585,5.32-12.882,12.938-12.882C48.926,10.284,54.2,15.514,54.2,23Zm-8.609.11c0-8.695-.626-11.588-4.33-11.588-3.837,0-4.219,3.338-4.219,11.533,0,8.273.387,11.643,4.274,11.643S45.593,31.347,45.593,23.112ZM80,30.865V17.943c0-4.868-2.772-7.659-7.6-7.659a8.284,8.284,0,0,0-7.208,3.639l-.152-3.089H55.11v.507l.036.036c2.046,2.045,2.329,2.575,2.329,4.366V30.865c0,1.685-.311,2.243-2.214,3.977l-.041.037v.511H67.238v-.507l-.036-.037c-1.718-1.717-2-2.275-2-3.981V15.088a5.6,5.6,0,0,1,3.669-1.365c2.284,0,3.395,1.237,3.395,3.78V30.865c0,1.707-.281,2.264-2,3.981l-.037.037v.507H82.251v-.511l-.041-.037C80.307,33.108,80,32.55,80,30.865ZM95.281,19.7c-3.746-2.193-5.547-3.342-5.547-5.446,0-1.738,1.157-2.734,3.174-2.734,1.494,0,2.879.68,7.8,3.829l.06.038.358-.178-.281-4.153-.007-.1-.1-.015a55.707,55.707,0,0,0-7.443-.661c-6.16,0-9.693,2.711-9.693,7.439,0,3.814,2.487,6.033,6.223,8.192,3.644,2.007,5.545,3.168,5.545,5.611A2.968,2.968,0,0,1,92.084,34.7c-1.828,0-3.328-.893-8.446-5.032l-.048-.039-.4.1,1.028,5.084.07.022a25.569,25.569,0,0,0,7.517,1.106c6.138,0,9.8-2.987,9.8-7.989C101.612,23.788,98.989,21.907,95.281,19.7Zm22.031-8.363.037.036c2.046,2.046,2.328,2.576,2.328,4.366v15.4a5.367,5.367,0,0,1-3.724,1.524c-2.119,0-3.065-1.233-3.065-4V10.834H102.794v.507l.037.036c2.045,2.046,2.328,2.576,2.328,4.366V28.281c0,4.868,2.671,7.659,7.329,7.659a8.968,8.968,0,0,0,7.25-3.613l.051,3.063h7.617V10.834H117.312Zm23.075,19.524V0H130.128V.508l.038.036c2.167,2.112,2.493,2.727,2.493,4.7V30.865c0,1.685-.311,2.243-2.214,3.977l-.041.037v.511h12.238v-.511l-.041-.037C140.7,33.108,140.387,32.55,140.387,30.865Zm19.251,1.016a3.492,3.492,0,0,1-2.712,1.06c-1.961,0-2.955-1.142-2.955-3.4V12.183h5.61V10.834h-5.61V4.675h-7.392l-.33,6.159h-3.2v1.349h3.135V29.216c0,4.274,2.631,6.724,7.219,6.724,3.267,0,5.758-1.387,6.66-3.709l.029-.075-.369-.373Zm21.336-15.368V35.39h-7.616l-.051-2.51a8,8,0,0,1-6.48,3.06c-4.186,0-6.89-2.618-6.89-6.669,0-5.708,5.29-6.86,13.309-8.57V14.808c0-2.234-.81-3.23-2.625-3.23-1.6,0-3.15.807-9.161,5.582l-.062.05-.366-.182.286-4.621.078-.027a36.7,36.7,0,0,1,11.149-2.1C178.059,10.284,180.974,12.438,180.974,16.513ZM167.556,28.006c0,4.127,1.024,4.935,2.79,4.935a4.228,4.228,0,0,0,2.9-1.138V22C168.677,22.955,167.556,24.156,167.556,28.006Zm41.028,2.859V17.943c0-4.868-2.772-7.659-7.6-7.659a8.287,8.287,0,0,0-7.209,3.639l-.151-3.089H183.7v.507l.036.036c2.046,2.046,2.329,2.576,2.329,4.366V30.865c0,1.684-.311,2.242-2.214,3.977l-.041.037v.511h12.019v-.507l-.037-.037c-1.718-1.717-2-2.275-2-3.981V15.088a5.6,5.6,0,0,1,3.669-1.365c2.285,0,3.395,1.237,3.395,3.78V30.865c0,1.706-.28,2.264-2,3.981l-.037.037v.507h12.018v-.511l-.041-.037C208.894,33.108,208.584,32.55,208.584,30.865Zm18.736.918-.089.1a3.493,3.493,0,0,1-2.712,1.06c-1.96,0-2.954-1.142-2.954-3.4V12.183h5.608V10.834h-5.608V4.675h-7.393l-.33,6.159h-3.2v1.349h3.135V29.216c0,4.274,2.631,6.724,7.219,6.724,3.267,0,5.757-1.387,6.66-3.709l.029-.075ZM244.3,43.4c-7.881,0-11.526-5.073-11.92-9.851h4.778A6.781,6.781,0,0,0,244.3,39.16c4.384,0,7.192-2.266,7.192-6.207s-2.611-6.107-7.192-6.107h-5.172V22.611h5.517c3.743,0,5.96-1.971,5.96-5.566,0-3.547-2.66-5.566-6.4-5.566-3.941,0-5.813,2.364-6.354,5.32h-4.728c.246-4.483,3.644-9.556,11.033-9.556,7.19,0,11.181,4.039,11.181,9.6a8.123,8.123,0,0,1-4.926,7.586c2.561.788,5.812,3.4,5.812,8.816C256.218,39.308,251.785,43.4,244.3,43.4Zm25.9-7.29c-7.98,0-12.511-5.024-12.511-11.919,0-5.32,2.56-8.965,5.664-12.954L271.532.544H277.2L267.05,13.5a9.386,9.386,0,0,1,4.58-1.083c6.5,0,11.182,4.482,11.182,11.772C282.812,30.885,278.084,36.106,270.2,36.106Zm0-19.7a7.393,7.393,0,0,0-7.783,7.783A7.364,7.364,0,0,0,270.2,31.87c5.172,0,7.881-3.5,7.881-7.683C278.084,19.7,275.375,16.4,270.2,16.4Zm43.735,5.221a14.482,14.482,0,0,1-28.963,0,14.482,14.482,0,0,1,28.963,0Zm-4.729,0c0-5.713-3.99-10.146-9.752-10.146S289.7,15.961,289.7,21.625s3.99,10.245,9.753,10.245S309.209,27.339,309.209,21.625Z" transform="translate(0 0)"/></svg>