<svg xmlns="http://www.w3.org/2000/svg" viewBox="0 0 310 34.039">
  <defs>
    <style>
      .cls-1 {
        fill: #fff;
      }
    </style>
  </defs>
  <path id="HMP-Multispecialty-Logo-1L_1C-W" class="cls-1" d="M124.4,14.725c0-4.726,0-9.143.138-11.574H124.5c-1.2,3.218-6.472,14.622-10.307,22.738h-1.815c-2.809-6.3-8.561-19.28-9.931-22.7h-.034c.24,2.774.306,8.15.306,12.26V25.889h-2.055V1.438h3.014c3.835,8.255,9.006,20.033,9.723,21.709h.034c1.233-2.6,6.507-14.109,9.968-21.709h3.119V25.889H124.4Zm21.608,6.164c0,1.678,0,3.322.034,5h-1.918c-.068-.48-.136-1.953-.136-3.39-.856,2.263-2.5,3.87-6.336,3.87-3.664,0-6.472-1.918-6.472-6.883V8.767h1.986V19.04c0,2.774,1.131,5.411,4.658,5.411,4.281,0,6.164-2.466,6.164-8.048V8.767h2.018Zm4.623,5V0h1.986V25.889Zm4.725-17.122h3.6V2.979h1.986V8.767h4.76v1.746h-4.76V21.1c0,2.263.616,3.218,2.6,3.218a8.113,8.113,0,0,0,1.815-.171v1.644a5.945,5.945,0,0,1-2.226.274c-3.185,0-4.178-1.439-4.178-4.831V10.513h-3.6ZM168.608,3.63V0h1.986V3.63Zm0,5.137h1.986V25.889h-1.986Zm7.363,11.986c.719,2.465,2.774,3.869,6.336,3.869,3.835,0,5.274-1.406,5.274-3.321,0-1.712-.925-2.945-5.788-3.493-5.753-.651-6.986-2.6-6.986-4.76,0-1.986,1.644-4.76,6.883-4.76,5.856,0,7.26,3.151,7.4,5h-2.057c-.274-1.162-1.027-3.253-5.513-3.253-3.8,0-4.658,1.678-4.658,2.874,0,1.575.959,2.534,5.274,3.082,6.164.753,7.5,2.568,7.5,5.205,0,3.047-2.328,5.171-7.465,5.171s-7.636-2.192-8.255-5.616ZM192.819,33.56V13.082c0-1.438,0-2.874-.034-4.315H194.7c.069.55.1,1.712.1,3.356,1.028-2.018,3.185-3.835,6.952-3.835,4.692,0,7.945,3.835,7.945,8.767,0,5.376-3.665,9.315-8.425,9.315-3.938,0-5.479-1.815-6.472-3.493V33.56Zm8.425-23.421c-4.486,0-6.507,3.253-6.507,7.294,0,3.938,2.124,7.054,6.438,7.054,4.35,0,6.439-3.664,6.439-7.4,0-3.356-1.918-6.952-6.37-6.952Zm12.259,7.6c.205,3.975,2.808,6.815,6.815,6.815a6.093,6.093,0,0,0,5.856-3.356h2.021c-.89,2.294-3.22,5.171-8.117,5.171-5.65,0-8.595-4.383-8.595-8.972,0-5.376,3.561-9.112,8.492-9.112,6.4,0,8.493,4.863,8.493,8.867v.582Zm12.773-1.712c-.171-2.431-1.438-5.959-6.335-5.959-3.9,0-5.993,2.534-6.37,5.959Zm20.991,4.726a7.894,7.894,0,0,1-8.011,5.616c-5.822,0-8.767-4.075-8.767-8.938,0-5,3.321-9.143,8.835-9.143,5.205,0,7.465,3.253,7.911,5.719h-1.988a5.876,5.876,0,0,0-6.028-3.938c-4.075,0-6.678,3.048-6.678,7.294,0,4.007,2.5,7.191,6.713,7.191a5.988,5.988,0,0,0,5.993-3.8Zm3.39-17.122V0h1.986V3.63Zm0,5.137h1.986V25.892H250.66Zm20.549,13.184c0,1.37.1,3.528.171,3.939h-1.92a21.383,21.383,0,0,1-.206-2.808c-.89,1.918-2.807,3.287-6.678,3.287-4.931,0-6.644-2.979-6.644-5.442,0-4.315,4.007-5.548,8.8-5.548h4.517v-1.1c0-2.157-.924-4.246-5.2-4.246-3.8,0-4.726,1.746-5.137,3.664h-1.986c.24-2.363,1.781-5.411,7.155-5.411,5.548,0,7.124,2.774,7.124,5.582Zm-1.957-4.9H264.8c-4.586,0-6.849.959-6.849,3.767,0,2.018,1.472,3.767,4.794,3.767,5.41,0,6.506-3.39,6.506-6.543Zm6.678,8.835V0h1.986V25.889Zm4.554-17.122h3.6V2.979h1.989V8.767h4.759v1.746h-4.759V21.1c0,2.263.616,3.218,2.6,3.218a8.112,8.112,0,0,0,1.815-.171v1.644a5.942,5.942,0,0,1-2.225.274c-3.185,0-4.178-1.439-4.178-4.831V10.513h-3.6Zm13.869,0c4.041,8.938,6.4,14.109,7.02,15.684h.034c.685-1.678,2.637-6.815,6.438-15.684H310l-7.26,17.122c-3.082,7.226-4.315,8.15-7.774,8.15a13.429,13.429,0,0,1-1.986-.171V31.881a15.1,15.1,0,0,0,1.952.172c2.329,0,3.39-1.1,5.342-5.308L292.158,8.767ZM60.4,8.094V25.9H55.507V12.982h-.495L44.14,26.241,33.266,12.982h-.495v12.91H27.88V8.092h7.563l8.7,10.6,8.7-10.6ZM4.892,19.244H22.814V8.092H17.922V14.6H0v11.3H4.892ZM70.358,25.9H78.89c6.543,0,9.972-4.147,9.972-9.055s-3.433-8.75-9.972-8.75H65.466V32.9h4.892Zm0-13.158H78.8c4.407,0,5.171,2.637,5.171,4.1S83.2,21.246,78.8,21.246H70.358ZM0,.944H4.892v8.2L0,12.353ZM22.814,21.491,17.922,24.7v8.2h4.892Z" transform="translate(0 0)"/>
</svg>
