<svg xmlns="http://www.w3.org/2000/svg" viewBox="0 0 31 31"><defs><style>.a{fill:#333;}.b{fill:#fff;}</style></defs><g transform="translate(-551 -659)"><g transform="translate(-33 118)"><circle class="a" cx="15.5" cy="15.5" r="15.5" transform="translate(584 541)"/><g transform="translate(591.258 549.154)"><path class="b" d="M100.479,111.8a7.269,7.269,0,0,1-2.086.573,3.619,3.619,0,0,0,1.593-2.006,7.258,7.258,0,0,1-2.306.88,3.625,3.625,0,0,0-6.271,2.479,3.738,3.738,0,0,0,.093.826,10.3,10.3,0,0,1-7.477-3.792,3.63,3.63,0,0,0,1.12,4.844,3.589,3.589,0,0,1-1.639-.453v.047a3.632,3.632,0,0,0,2.912,3.558,3.776,3.776,0,0,1-.953.127,3.266,3.266,0,0,1-.68-.067,3.625,3.625,0,0,0,3.385,2.519,7.273,7.273,0,0,1-4.5,1.553,7.46,7.46,0,0,1-.866-.053,10.307,10.307,0,0,0,15.873-8.683c0-.16-.007-.313-.013-.466A7.52,7.52,0,0,0,100.479,111.8Z" transform="translate(-82.8 -110.1)"/></g></g></g></svg>