<svg xmlns="http://www.w3.org/2000/svg" viewBox="0 0 178.332 31"><defs><style>.a{fill:#fff;}</style></defs><path class="a" d="M157.127,29.732A25.317,25.317,0,0,0,165.357,31a16.259,16.259,0,0,0,9.364-2.449,7.775,7.775,0,0,0,3.612-6.841c0-10.557-14.571-8.741-14.571-15.793,0-2.576,1.848-4.392,4.829-4.392a14.563,14.563,0,0,1,7.6,2.323l-.21-2.7A28.757,28.757,0,0,0,168.255,0q-5.291,0-8.314,2.534a7.909,7.909,0,0,0-3.023,6.292c0,10.557,14.571,9.121,14.571,15.92,0,2.871-2.561,4.73-6.131,4.73a16.648,16.648,0,0,1-8.44-2.449ZM134.83,2.114h2.394c5.417,0,8.734,4.6,8.734,12.922,0,4.265-.8,7.6-2.351,10.092a7.224,7.224,0,0,1-6.383,3.759H134.83ZM138.9,30.492a15.21,15.21,0,0,0,11.085-4.138c2.813-2.745,4.2-6.5,4.2-11.275,0-4.73-1.386-8.361-4.157-10.853S143.564.51,138.9.51H127.021V30.492Zm-37.707,0-.042-21.115,17.468,21.115h4.493L123.158.51h-1.764l.042,21.2L103.968.51H99.475l-.042,29.982ZM72.9,19.428c0,3.758,1.091,6.63,3.317,8.615A12.417,12.417,0,0,0,84.905,31Q95.928,31,95.991,19.85L96.032.51H94.311l.042,19.341c.042,5.194-2.268,8.826-7.138,8.826-3.989,0-6.509-3.083-6.509-7.263V.51H72.9ZM49.717,5.154c1.3-2.407,2.982-3.631,5-3.631s3.7,1.225,5.039,3.631c1.3,2.449,1.973,5.912,1.973,10.346s-.672,7.9-1.973,10.3q-2.016,3.674-5.039,3.674c-2.016,0-3.7-1.225-5-3.674C48.373,23.4,47.7,19.935,47.7,15.5s.672-7.9,2.016-10.346M40.773,22.131c3.359,7.728,12.3,10.6,19.61,7.812a13.949,13.949,0,0,0,8.272-7.812,17.666,17.666,0,0,0,0-13.26c-3.36-7.728-12.3-10.6-19.568-7.854a14.214,14.214,0,0,0-8.314,7.854,17.666,17.666,0,0,0,0,13.26M13.815,30.492,19.9,11.658l6.55,18.834h3.317L39.891.51H38.128L31.367,20.653,24.312.51H16l3.023,8.615-3.7,11.444L8.356.51H0L10.5,30.492Z" transform="translate(0 0.003)"/></svg>