<svg xmlns="http://www.w3.org/2000/svg" viewBox="0 0 512.102 113.777"><defs><style>.a{fill:#27377c;}</style></defs><path class="a" d="M765.524,291.6a1.931,1.931,0,0,1,1.868-1.868c1.036,0,1.494.662,1.494,1.715v.136Zm-.051,1.172,5.128-.068a5.19,5.19,0,0,0,.17-1.307,2.95,2.95,0,0,0-3.227-3.176,3.962,3.962,0,0,0-4.042,4.246,3.883,3.883,0,0,0,4.178,4.093,6.133,6.133,0,0,0,2.836-.645l-.255-1.664a4.817,4.817,0,0,1-2.446.713,2.183,2.183,0,0,1-2.344-2.14v-.051Zm-3.515,3.142-.323-1.63a4.02,4.02,0,0,1-2.174.611,2.225,2.225,0,0,1-2.225-2.53c0-1.512.781-2.5,2.225-2.5a4.012,4.012,0,0,1,2.123.628l.425-1.613a5.252,5.252,0,0,0-2.7-.662,3.923,3.923,0,0,0-4.127,4.195,3.781,3.781,0,0,0,4.059,4.144,5.451,5.451,0,0,0,2.718-.645m-8.882.39V288.24l-2,.289v7.778Zm.237-10.461a1.232,1.232,0,0,0-2.463,0,1.232,1.232,0,0,0,2.463,0m-4.16,10.41-.272-1.63a3.909,3.909,0,0,1-1.223.238.922.922,0,0,1-1.036-1.07l.1-3.617H749l.051-1.647h-2.208l.034-1.834h-1.936l-.034,1.732-1.223.391-.051,1.274,1.223.136-.119,3.685c-.068,1.885.849,2.649,2.6,2.649a5.288,5.288,0,0,0,1.816-.306m-6.674-.339-.323-1.63a4.02,4.02,0,0,1-2.174.611,2.225,2.225,0,0,1-2.224-2.53c0-1.512.781-2.5,2.224-2.5a4.012,4.012,0,0,1,2.123.628l.425-1.613a5.252,5.252,0,0,0-2.7-.662,3.922,3.922,0,0,0-4.127,4.195,3.781,3.781,0,0,0,4.059,4.144,5.448,5.448,0,0,0,2.717-.645m-10.8-1.495a2,2,0,0,1-1.495.679,1.046,1.046,0,0,1-1.172-1.019c0-.832.713-1.223,2.666-1.46Zm.068.985c.289.781.985,1.24,2.479,1.07l.153-1.512c-.595-.034-.7-.119-.7-.713v-2.8c.051-2.157-.883-3.227-3.294-3.227a6.507,6.507,0,0,0-3.278.917l.408,1.579a5.678,5.678,0,0,1,2.6-.832c1.121,0,1.562.442,1.562,1.494v.187c-3.583.119-4.636,1.342-4.636,2.785a2.271,2.271,0,0,0,2.429,2.208,2.763,2.763,0,0,0,2.208-1.155h.068Zm-9.136-3.94a2.222,2.222,0,0,1,1.868-1.392,2.323,2.323,0,0,1,1.121.306l.442-1.8a2.7,2.7,0,0,0-1.392-.357,2.258,2.258,0,0,0-2.038,1.291V288.24l-2,.289v7.778h2v-4.84Zm-6.148-2.157c0,1.24-.8,1.919-2.377,1.953l-1.325.034v-3.872h1.257c1.63,0,2.446.645,2.446,1.885m2.072-.068c0-2.072-1.444-3.549-4.381-3.549h-3.43v10.614H712.8v-3.294L714,293c2.853-.017,4.534-1.308,4.534-3.753m-16.829,1.036v3.94a2.27,2.27,0,0,1-1.613.645c-1.206,0-1.97-.968-1.97-2.5,0-1.444.764-2.547,2.106-2.547a2.429,2.429,0,0,1,1.478.459m0-1.8a5.88,5.88,0,0,0-1.664-.255,3.978,3.978,0,0,0-3.957,4.229c0,2.429,1.342,4.11,3.414,4.11a3.156,3.156,0,0,0,2.208-1.019v.764h2V284.691l-2,.272Zm-7.676,7.829v-5.383a2.4,2.4,0,0,0-2.513-2.7,3.587,3.587,0,0,0-2.582,1.257v-1.24l-2,.272v7.795h2v-5.587a2.623,2.623,0,0,1,1.732-.73c.9,0,1.359.39,1.359,1.545v4.772h2Zm-11.582-1.885a2,2,0,0,1-1.494.679,1.046,1.046,0,0,1-1.172-1.019c0-.832.713-1.223,2.666-1.46Zm.068.985c.289.781.985,1.24,2.479,1.07l.153-1.512c-.594-.034-.7-.119-.7-.713v-2.8c.051-2.157-.883-3.227-3.294-3.227a6.508,6.508,0,0,0-3.278.917l.408,1.579a5.678,5.678,0,0,1,2.6-.832c1.121,0,1.562.442,1.562,1.494v.187c-3.583.119-4.636,1.342-4.636,2.785a2.271,2.271,0,0,0,2.429,2.208,2.763,2.763,0,0,0,2.208-1.155h.068Zm-10.987.9v-5.383a2.386,2.386,0,0,0-2.445-2.7,3.6,3.6,0,0,0-2.649,1.24v-4.772l-2,.272v11.344h2v-5.587a2.65,2.65,0,0,1,1.783-.73c.849,0,1.307.39,1.307,1.545v4.772h2Zm-9.187-.39-.322-1.63a4.021,4.021,0,0,1-2.174.611,2.225,2.225,0,0,1-2.224-2.53c0-1.512.781-2.5,2.224-2.5a4.012,4.012,0,0,1,2.123.628l.425-1.613a5.252,5.252,0,0,0-2.7-.662,3.923,3.923,0,0,0-4.127,4.195,3.781,3.781,0,0,0,4.059,4.144,5.45,5.45,0,0,0,2.717-.645m-11.276-4.449a2.222,2.222,0,0,1,1.868-1.392,2.323,2.323,0,0,1,1.121.306l.442-1.8a2.7,2.7,0,0,0-1.392-.357,2.259,2.259,0,0,0-2.038,1.291V288.24l-2,.289v7.778h2v-4.84Zm-6.487,2.955a2,2,0,0,1-1.494.679,1.046,1.046,0,0,1-1.172-1.019c0-.832.713-1.223,2.666-1.46Zm.068.985c.289.781.985,1.24,2.479,1.07l.153-1.512c-.595-.034-.7-.119-.7-.713v-2.8c.051-2.157-.883-3.227-3.294-3.227a6.507,6.507,0,0,0-3.278.917l.408,1.579a5.679,5.679,0,0,1,2.6-.832c1.121,0,1.562.442,1.562,1.494v.187c-3.583.119-4.636,1.342-4.636,2.785a2.271,2.271,0,0,0,2.429,2.208,2.763,2.763,0,0,0,2.208-1.155h.068Zm-11.514-3.8A1.931,1.931,0,0,1,635,289.734c1.036,0,1.494.662,1.494,1.715v.136Zm-.051,1.172,5.129-.068a5.193,5.193,0,0,0,.17-1.307,2.95,2.95,0,0,0-3.227-3.176,3.962,3.962,0,0,0-4.042,4.246,3.883,3.883,0,0,0,4.178,4.093,6.133,6.133,0,0,0,2.836-.645l-.255-1.664a4.817,4.817,0,0,1-2.445.713,2.183,2.183,0,0,1-2.344-2.14Zm-3.566,1.257c0-1.528-1.172-2.106-2.666-2.462-.917-.221-1.579-.425-1.579-1.019,0-.51.442-.781,1.172-.781a6.044,6.044,0,0,1,2.462.645l.442-1.562a6.907,6.907,0,0,0-2.853-.628c-1.885,0-3.125.968-3.125,2.445s1.172,2.089,2.649,2.429c.917.221,1.579.442,1.579,1.053,0,.543-.509.866-1.291.866a5.7,5.7,0,0,1-2.649-.73l-.442,1.562a6.8,6.8,0,0,0,3.04.73c2,0,3.261-1.087,3.261-2.548M616.489,291.6a1.931,1.931,0,0,1,1.868-1.868c1.036,0,1.494.662,1.494,1.715v.136Zm-.051,1.172,5.128-.068a5.19,5.19,0,0,0,.17-1.307,2.95,2.95,0,0,0-3.227-3.176,3.962,3.962,0,0,0-4.042,4.246,3.883,3.883,0,0,0,4.178,4.093,6.133,6.133,0,0,0,2.836-.645l-.255-1.664a4.817,4.817,0,0,1-2.445.713,2.183,2.183,0,0,1-2.344-2.14v-.051Zm-9.374-1.885v-3.464h1.342c1.477,0,2.309.527,2.309,1.63,0,1.155-.832,1.732-2.106,1.8Zm.017,1.63,1.528-.1,2.361,3.889h2.36l-2.785-4.331a3.086,3.086,0,0,0,2.292-3.057c0-1.953-1.427-3.227-4.11-3.227H605.01v10.614h2.072ZM598,296.307V284.691l-2,.272v11.344h2Zm-6.486-1.885a2,2,0,0,1-1.494.679,1.046,1.046,0,0,1-1.172-1.019c0-.832.713-1.223,2.666-1.46Zm.068.985c.289.781.985,1.24,2.479,1.07l.153-1.512c-.595-.034-.7-.119-.7-.713v-2.8c.051-2.157-.883-3.227-3.295-3.227a6.507,6.507,0,0,0-3.277.917l.407,1.579a5.678,5.678,0,0,1,2.6-.832c1.121,0,1.562.442,1.562,1.494v.187c-3.583.119-4.636,1.342-4.636,2.785a2.271,2.271,0,0,0,2.429,2.208,2.763,2.763,0,0,0,2.208-1.155h.068Zm-6.266.51-.323-1.63a4.021,4.021,0,0,1-2.174.611,2.225,2.225,0,0,1-2.224-2.53c0-1.512.781-2.5,2.224-2.5a4.013,4.013,0,0,1,2.123.628l.425-1.613a5.252,5.252,0,0,0-2.7-.662,3.922,3.922,0,0,0-4.127,4.195,3.781,3.781,0,0,0,4.059,4.144,5.45,5.45,0,0,0,2.717-.645m-8.882.39V288.24l-2,.289v7.778Zm.238-10.461a1.232,1.232,0,0,0-2.463,0,1.232,1.232,0,0,0,2.463,0m-4.755,10.461v-5.383a2.4,2.4,0,0,0-2.513-2.7,3.587,3.587,0,0,0-2.581,1.257v-1.24l-2,.272v7.795h2v-5.587a2.623,2.623,0,0,1,1.732-.73c.9,0,1.359.39,1.359,1.545v4.772h2Zm-9.663,0V288.24l-2,.289v7.778Zm.237-10.461a1.232,1.232,0,0,0-2.463,0,1.232,1.232,0,0,0,2.463,0m-4.8,10.461V284.691l-2,.272v11.344h2Zm-4.127-10.037a7.365,7.365,0,0,0-3.43-.832,5.237,5.237,0,0,0-5.536,5.587,5.141,5.141,0,0,0,5.485,5.536,7.057,7.057,0,0,0,3.379-.832l-.39-1.9a5.2,5.2,0,0,1-2.9.951c-2.14,0-3.481-1.477-3.481-3.821,0-2.309,1.376-3.736,3.447-3.736a4.936,4.936,0,0,1,2.785.849Zm-14.112-1.392a4.866,4.866,0,0,0-1.851-.391c-1.749,0-2.785.883-2.836,3.125l-.017.832-1.274.374-.068,1.274,1.359.1v6.113h2v-6.131h2.225l.051-1.647h-2.327v-.866c0-.968.306-1.392,1.036-1.392a3.135,3.135,0,0,1,1.274.323c0,.017.425-1.7.425-1.715m-9.136,7.523c0,1.512-.713,2.53-2,2.53-1.307,0-2.055-1.053-2.055-2.547,0-1.512.713-2.564,2.021-2.564,1.291,0,2.038,1.07,2.038,2.581m1.987-.017a3.842,3.842,0,0,0-3.957-4.178,3.933,3.933,0,0,0-4.059,4.195,3.827,3.827,0,0,0,3.957,4.161,3.937,3.937,0,0,0,4.059-4.178m-14.35,3.923V290.94c0-1.7-.934-2.717-2.412-2.717a3.743,3.743,0,0,0-2.785,1.342,2.229,2.229,0,0,0-2.14-1.342,3.411,3.411,0,0,0-2.5,1.121v-1.1l-2,.272v7.795h2v-5.672a2.316,2.316,0,0,1,1.63-.645c.832,0,1.274.407,1.274,1.562v4.755h2v-5.621a2.494,2.494,0,0,1,1.63-.7c.832,0,1.291.407,1.291,1.562v4.755h2ZM496.5,288.478v5.383a2.39,2.39,0,0,0,2.462,2.7,3.59,3.59,0,0,0,2.581-1.189v1.155l2-.272v-7.778h-2V294.1a2.557,2.557,0,0,1-1.715.679c-.849,0-1.325-.374-1.325-1.528v-4.772h-2Zm-2.5,7.829V288.24l-2,.289v7.778Zm.238-10.461a1.232,1.232,0,0,0-2.463,0,1.232,1.232,0,0,0,2.463,0m-6.81,4.432v3.94a2.27,2.27,0,0,1-1.613.645c-1.206,0-1.97-.968-1.97-2.5,0-1.444.764-2.547,2.106-2.547a2.428,2.428,0,0,1,1.478.459m0-1.8a5.88,5.88,0,0,0-1.664-.255,3.978,3.978,0,0,0-3.957,4.229c0,2.429,1.342,4.11,3.414,4.11a3.155,3.155,0,0,0,2.208-1.019v.764h2V284.691l-2,.272Zm-7.676,7.829v-5.383a2.4,2.4,0,0,0-2.513-2.7,3.587,3.587,0,0,0-2.581,1.257v-1.24l-2,.272v7.795h2v-5.587a2.623,2.623,0,0,1,1.732-.73c.9,0,1.359.39,1.359,1.545v4.772h2Zm-14.435-4.7a1.931,1.931,0,0,1,1.868-1.868c1.036,0,1.494.662,1.494,1.715v.136Zm-.051,1.172,5.128-.068a5.19,5.19,0,0,0,.17-1.307,2.95,2.95,0,0,0-3.227-3.176,3.962,3.962,0,0,0-4.042,4.246,3.883,3.883,0,0,0,4.178,4.093,6.133,6.133,0,0,0,2.836-.645l-.255-1.664a4.817,4.817,0,0,1-2.445.713,2.183,2.183,0,0,1-2.344-2.14v-.051Zm-9.237-2.224a2.346,2.346,0,0,1,1.613-.645c1.24,0,1.97.968,1.97,2.5,0,1.46-.764,2.547-2.106,2.547a2.388,2.388,0,0,1-1.477-.442V290.55Zm0-1.325v-.985l-2,.272v11.531h2v-3.719a6.136,6.136,0,0,0,1.664.221,3.978,3.978,0,0,0,3.957-4.229c0-2.412-1.359-4.093-3.43-4.093a3.136,3.136,0,0,0-2.191,1m-4.5,7.082V290.94c0-1.7-.934-2.717-2.412-2.717a3.742,3.742,0,0,0-2.785,1.342,2.229,2.229,0,0,0-2.14-1.342,3.411,3.411,0,0,0-2.5,1.121v-1.1l-2,.272v7.795h2v-5.672a2.316,2.316,0,0,1,1.63-.645c.832,0,1.274.407,1.274,1.562v4.755h2v-5.621a2.494,2.494,0,0,1,1.63-.7c.832,0,1.291.407,1.291,1.562v4.755h2ZM435.6,292.4c0,1.512-.713,2.53-2,2.53-1.307,0-2.055-1.053-2.055-2.547,0-1.512.713-2.564,2.021-2.564,1.291,0,2.038,1.07,2.038,2.581m1.987-.017a3.842,3.842,0,0,0-3.957-4.178,3.933,3.933,0,0,0-4.059,4.195,3.827,3.827,0,0,0,3.957,4.161,3.937,3.937,0,0,0,4.059-4.178m-9.425-6.114a7.365,7.365,0,0,0-3.43-.832,5.237,5.237,0,0,0-5.536,5.587,5.141,5.141,0,0,0,5.485,5.536,7.057,7.057,0,0,0,3.379-.832l-.39-1.9a5.2,5.2,0,0,1-2.9.951c-2.14,0-3.481-1.477-3.481-3.821,0-2.309,1.376-3.736,3.447-3.736a4.937,4.937,0,0,1,2.785.849Zm-17.882,5.808h-3.21l1.613-4.6Zm-.323-6.385h-2.513l-3.872,10.614h2.089l.866-2.513H410.8l.883,2.513h2.089Z" transform="translate(-264.233 -186.265)"/><path class="a" d="M451.209,85.381a72.7,72.7,0,0,0,23.633,3.637c10.973,0,20.017-2.3,26.89-7.033,6.873-4.609,10.371-11.156,10.371-19.645,0-30.315-41.842-25.1-41.842-45.352,0-7.4,5.306-12.612,13.867-12.612,7.114,0,14.47,2.182,21.826,6.67l-.6-7.761A82.584,82.584,0,0,0,483.163.011q-15.193,0-23.875,7.276c-5.788,4.851-8.681,10.913-8.681,18.068,0,30.315,41.841,26.193,41.841,45.716,0,8.246-7.355,13.581-17.605,13.581a47.8,47.8,0,0,1-24.236-7.033ZM387.18,6.074h6.874c15.555,0,25.081,13.219,25.081,37.107,0,12.247-2.292,21.828-6.753,28.981s-10.611,10.794-18.328,10.794H387.18Zm11.7,81.49c13.143,0,23.755-4,31.833-11.883S442.769,57,442.769,43.3c0-13.581-3.979-24.01-11.938-31.165S412.261,1.466,398.877,1.466H364.753v86.1h34.124Zm-108.28,0-.121-60.632,50.162,60.632h12.9l.121-86.1H348.6l.121,60.874L298.556,1.467h-12.9l-.121,86.1H290.6Zm-81.27-31.771c0,10.792,3.134,19.038,9.525,24.738,6.271,5.7,14.591,8.488,24.961,8.488q31.652,0,31.833-32.014l.12-55.539h-4.943L270.944,57c.121,14.916-6.512,25.344-20.5,25.344-11.455,0-18.69-8.852-18.69-20.857V1.467H209.327V55.793ZM142.767,14.8c3.738-6.912,8.561-10.428,14.349-10.428s10.611,3.516,14.47,10.428c3.737,7.034,5.667,16.977,5.667,29.71s-1.93,22.677-5.667,29.588q-5.789,10.551-14.47,10.55c-5.788,0-10.611-3.516-14.349-10.55-3.859-6.912-5.788-16.855-5.788-29.588s1.929-22.676,5.788-29.71M117.084,63.554c9.646,22.191,35.33,30.437,56.311,22.434,10.37-3.88,18.81-10.914,23.754-22.434,4.944-11.278,4.944-26.8,0-38.078C187.5,3.286,161.818-4.96,140.959,2.921c-10.37,4-18.931,11.035-23.875,22.555-4.944,11.278-4.944,26.8,0,38.078M39.671,87.564,57.155,33.48l18.81,54.084h9.526l29.06-86.1h-5.064L90.073,59.309,69.816,1.467H45.942L54.623,26.2,44.012,59.066,23.995,1.467H0l30.145,86.1h9.526Z" transform="translate(0 0)"/></svg>