<svg xmlns="http://www.w3.org/2000/svg" viewBox="0 0 31 31"><defs><style>.a{fill:#333;}.b{fill:#fff;}</style></defs><g transform="translate(-587 -659)"><g transform="translate(-34 118)"><circle class="a" cx="15.5" cy="15.5" r="15.5" transform="translate(621 541)"/><path class="b" d="M99.164,86.209h3.322V96.885H99.164Zm1.657-5.309A1.921,1.921,0,1,1,98.9,82.821a1.923,1.923,0,0,1,1.921-1.921m3.74,15.985h3.314V91.605c0-1.393.264-2.742,1.987-2.742,1.7,0,1.723,1.591,1.723,2.83v5.191H114.9V91.026c0-2.874-.623-5.081-3.974-5.081a3.488,3.488,0,0,0-3.138,1.723h-.044V86.209h-3.182Z" transform="translate(530.451 466.132)"/></g></g></svg>