<svg id="Layer_1" data-name="Layer 1" xmlns="http://www.w3.org/2000/svg" width="0.73in" height="0.73in" viewBox="0 0 52.588 52.587"><defs><style>.cls-1{fill:#1c2f72;}</style></defs><title>Video-Carousel-Right</title><path class="cls-1" d="M34.133,47.588a.959.959,0,0,1-1.363,0l-2.512-2.512a.959.959,0,0,1,0-1.363L38.3,35.676l-8.037-8.038a.959.959,0,0,1,0-1.363l2.512-2.512a.959.959,0,0,1,1.363,0l11.23,11.231a.959.959,0,0,1,0,1.363ZM36,9.707A26.294,26.294,0,1,1,9.706,36,26.324,26.324,0,0,1,36,9.707Zm0,47.587A21.294,21.294,0,1,0,14.706,36,21.318,21.318,0,0,0,36,57.294Z" transform="translate(-9.706 -9.707)"/></svg>