<svg id="Layer_1" data-name="Layer 1" xmlns="http://www.w3.org/2000/svg" width="0.73in" height="0.73in" viewBox="0 0 52.588 52.587"><defs><style>.cls-1{fill:#1c2f72;}</style></defs><title>Video-Carousel-Left</title><path class="cls-1" d="M37.867,24.413a.959.959,0,0,1,1.363,0l2.512,2.511a.96.96,0,0,1,0,1.364l-8.037,8.037,8.037,8.037a.96.96,0,0,1,0,1.364L39.23,48.237a.959.959,0,0,1-1.363,0l-11.23-11.23a.96.96,0,0,1,0-1.364ZM36,62.294A26.294,26.294,0,1,1,62.294,36,26.325,26.325,0,0,1,36,62.294Zm0-47.587A21.294,21.294,0,1,0,57.294,36,21.318,21.318,0,0,0,36,14.707Z" transform="translate(-9.706 -9.707)"/></svg>