<svg id="Layer_1" data-name="Layer 1" xmlns="http://www.w3.org/2000/svg" width="0.625in" height="0.625in" viewBox="0 0 45 45"><defs><style>.cls-1{fill:none;}.cls-2{fill:#fff;}</style></defs><title>Podcast-Icon-Clear</title><rect class="cls-1" width="45" height="45"/><path class="cls-2" d="M22.5,27.822A5.336,5.336,0,0,0,27.822,22.5V13.984A5.338,5.338,0,0,0,22.5,8.661a5.34,5.34,0,0,0-5.323,5.323V22.5A5.338,5.338,0,0,0,22.5,27.822Zm9.264-8.2a1.064,1.064,0,0,0-1.812.749V22.5A7.47,7.47,0,0,1,22.5,29.952,7.469,7.469,0,0,1,15.048,22.5V20.371a1.065,1.065,0,0,0-2.129,0V22.5a9.58,9.58,0,0,0,8.516,9.514v2.2H17.177a1.065,1.065,0,0,0,0,2.129H27.822a1.065,1.065,0,0,0,0-2.129H23.565v-2.2A9.582,9.582,0,0,0,32.081,22.5V20.371A1.025,1.025,0,0,0,31.764,19.622Z"/></svg>