<svg xmlns="http://www.w3.org/2000/svg" viewBox="0 0 19 19">
  <path id="Path_484" data-name="Path 484" d="M13.154-8.462A5.122,5.122,0,0,1,8.038-3.346,5.122,5.122,0,0,1,2.923-8.462a5.122,5.122,0,0,1,5.115-5.115A5.122,5.122,0,0,1,13.154-8.462ZM19,1.038A1.47,1.47,0,0,0,18.578.011L14.661-3.906a8.02,8.02,0,0,0,1.416-4.556A8.036,8.036,0,0,0,8.038-16.5,8.036,8.036,0,0,0,0-8.462,8.036,8.036,0,0,0,8.038-.423a8.02,8.02,0,0,0,4.556-1.416l3.916,3.905a1.433,1.433,0,0,0,1.028.434A1.472,1.472,0,0,0,19,1.038Z" transform="translate(0 16.5)"/>
</svg>
