<svg xmlns="http://www.w3.org/2000/svg" viewBox="0 0 31 31"><defs><style>.a{fill:#333;}.b{fill:#fff;}</style></defs><g transform="translate(-623 -659)"><path class="a" d="M15.5,0A15.5,15.5,0,1,1,0,15.5,15.5,15.5,0,0,1,15.5,0Z" transform="translate(623 659)"/><path class="b" d="M14.488,13.189a3.053,3.053,0,0,0-2.131.868L6.03,10.4a2.779,2.779,0,0,0,0-1.486l6.327-3.653a3.062,3.062,0,1,0-.935-2.2,3.031,3.031,0,0,0,.1.743L5.2,7.462a3.066,3.066,0,1,0,0,4.4l6.327,3.653a3.027,3.027,0,0,0-.1.743,3.066,3.066,0,1,0,3.066-3.066Z" transform="translate(629 665)"/></g></svg>