<svg id="Capa_1" data-name="Capa 1" xmlns="http://www.w3.org/2000/svg" width="24" height="24" viewBox="0 0 24 24"><title>User-Login-Icon</title><path d="M24,12a11.982,11.982,0,1,0-3.511,8.492,1.11,1.11,0,0,0,.114-.136A11.975,11.975,0,0,0,24,12ZM12,2.182A9.819,9.819,0,0,1,20,17.7a9.221,9.221,0,0,0-4.32-3.851,5.455,5.455,0,1,0-7.345.006,9.216,9.216,0,0,0-4.316,3.86A9.819,9.819,0,0,1,12,2.182Zm-.022,13.09h.039a7.034,7.034,0,0,1,6.4,4.157,10.048,10.048,0,0,1-12.838,0,7.033,7.033,0,0,1,6.4-4.157ZM8.727,9.818a3.273,3.273,0,1,1,3.417,3.269c-.093,0-.186,0-.279,0A3.273,3.273,0,0,1,8.727,9.818Z"/></svg>